<?xml version="1.0" standalone="no"?>
<!DOCTYPE svg PUBLIC "-//W3C//DTD SVG 20010904//EN"
 "http://www.w3.org/TR/2001/REC-SVG-20010904/DTD/svg10.dtd">
<svg version="1.0" xmlns="http://www.w3.org/2000/svg"
 width="400.000000pt" height="130.000000pt" viewBox="0 0 400.000000 130.000000"
 preserveAspectRatio="xMidYMid meet">

<g transform="translate(0.000000,130.000000) scale(0.100000,-0.100000)"
fill="#000000" stroke="none">
<path d="M390 1245 c-112 -54 -223 -169 -283 -295 -60 -125 -79 -202 -80 -321
0 -87 3 -103 30 -160 33 -69 112 -155 178 -194 86 -50 161 -68 290 -69 126 -1
215 15 317 55 34 13 65 19 87 15 60 -9 141 45 141 95 0 29 16 31 77 14 113
-33 198 -87 229 -147 17 -32 18 -111 3 -140 -9 -17 -8 -19 8 -16 32 6 46 52
33 109 -22 93 -151 196 -298 240 -24 7 -50 22 -57 32 -13 18 -10 29 28 100 42
79 43 80 104 102 163 58 284 189 315 340 9 47 8 58 -6 80 -41 62 -120 52 -196
-24 -56 -56 -86 -110 -151 -276 -45 -114 -48 -120 -77 -123 -17 -2 -49 2 -71
8 -36 9 -41 15 -47 48 -4 20 -15 61 -26 91 -16 49 -17 57 -3 77 28 43 68 72
113 84 24 6 42 14 39 17 -11 10 -95 -18 -140 -47 l-43 -27 -44 86 c-51 99
-166 228 -234 261 -68 33 -146 28 -236 -15z m196 -22 c14 -9 35 -34 47 -57 19
-36 22 -56 21 -161 -1 -192 -55 -345 -160 -456 -81 -84 -164 -123 -261 -124
-85 0 -115 17 -151 86 -21 40 -23 53 -19 144 9 168 72 315 190 441 113 121
258 177 333 127z m168 -125 c71 -96 142 -238 119 -238 -5 0 -16 15 -25 33 -24
51 -69 100 -81 88 -7 -7 1 -26 21 -58 17 -27 38 -68 46 -91 15 -42 43 -87 82
-132 15 -16 26 -49 33 -94 7 -51 17 -76 36 -96 14 -14 25 -29 25 -33 0 -4 -45
-7 -99 -7 -80 0 -100 3 -105 16 -3 8 -11 12 -17 9 -6 -4 -8 -13 -5 -20 3 -9
-11 -20 -40 -31 -24 -9 -60 -32 -79 -50 -30 -28 -34 -38 -29 -61 4 -15 18 -40
31 -55 l25 -26 -56 -7 c-84 -11 -234 0 -296 21 -58 20 -171 91 -178 112 -3 11
6 12 41 7 31 -5 64 -2 104 10 181 52 306 197 363 420 22 86 30 230 17 308 -5
31 -5 47 2 47 6 0 35 -33 65 -72z m722 -44 c10 -39 -12 -121 -47 -175 -45 -70
-131 -146 -204 -181 -36 -17 -69 -28 -72 -25 -7 7 97 203 147 277 77 114 161
163 176 104z m-420 -409 l41 -6 -31 -59 c-29 -55 -32 -58 -48 -43 -18 16 -38
72 -38 106 0 13 5 17 18 13 9 -2 35 -7 58 -11z m-92 -224 c11 -17 -80 -100
-137 -126 -109 -48 -191 -18 -161 60 7 18 51 43 109 61 46 15 181 18 189 5z
m76 -31 c0 -32 -49 -80 -81 -80 -16 0 -29 3 -29 6 0 3 18 27 41 54 41 49 69
57 69 20z"/>
<path d="M360 1141 c-14 -27 -13 -218 1 -227 7 -4 48 31 101 86 87 90 89 93
71 113 -42 47 -153 65 -173 28z m124 -34 c16 -12 14 -17 -29 -65 -26 -29 -51
-52 -56 -52 -5 0 -9 29 -9 65 l0 65 38 0 c21 0 46 -6 56 -13z"/>
<path d="M181 964 c-27 -34 -53 -106 -49 -134 5 -38 28 -44 92 -26 55 16 58
19 53 44 -9 41 -55 142 -66 142 -5 0 -19 -12 -30 -26z m45 -80 c8 -20 14 -38
12 -39 -2 -2 -20 -6 -41 -10 -33 -7 -37 -5 -31 11 28 86 38 92 60 38z"/>
<path d="M461 904 c-50 -25 -91 -50 -91 -57 0 -17 142 -167 157 -167 23 0 63
96 63 148 0 66 -9 110 -25 116 -7 2 -54 -16 -104 -40z m91 -71 c0 -51 -16
-103 -31 -103 -14 0 -107 113 -96 117 6 2 33 14 60 27 28 13 54 20 59 16 4 -5
8 -30 8 -57z"/>
<path d="M307 783 c-10 -17 -67 -208 -67 -225 0 -64 145 -34 219 46 l24 25
-78 81 c-77 78 -89 88 -98 73z m78 -103 c55 -55 53 -65 -16 -101 -37 -18 -89
-26 -89 -13 0 18 44 164 49 164 4 0 29 -22 56 -50z"/>
<path d="M166 724 l-68 -35 6 -52 c9 -64 35 -112 62 -112 15 0 26 18 51 90 31
87 41 146 26 145 -5 -1 -39 -17 -77 -36z m19 -81 c-8 -27 -15 -51 -15 -55 0
-5 -4 -8 -10 -8 -5 0 -14 17 -20 38 -9 33 -8 39 11 55 39 32 50 23 34 -30z"/>
<path d="M806 743 c-12 -12 -6 -33 9 -33 8 0 15 6 15 14 0 17 -14 28 -24 19z"/>
<path d="M617 444 c-8 -8 1 -24 14 -24 5 0 9 7 9 15 0 15 -12 20 -23 9z"/>
<path d="M480 331 c0 -11 4 -21 9 -21 18 0 21 18 6 30 -13 10 -15 9 -15 -9z"/>
<path d="M350 304 c0 -17 22 -14 28 4 2 7 -3 12 -12 12 -9 0 -16 -7 -16 -16z"/>
<path d="M3375 1074 c-24 -13 -66 -17 -200 -19 -138 -1 -185 -6 -250 -23 -162
-44 -260 -113 -286 -202 -36 -119 88 -210 208 -154 39 19 59 45 68 89 5 27 4
28 -7 11 -60 -88 -113 -117 -171 -92 -42 17 -57 41 -57 91 0 103 128 201 313
239 73 15 307 23 307 10 0 -3 -18 -26 -40 -51 -56 -64 -116 -157 -194 -302
-105 -194 -153 -253 -248 -302 -56 -29 -137 -32 -167 -5 -27 25 -27 70 0 97
18 18 30 21 71 17 27 -3 45 -1 41 3 -5 5 -33 10 -61 11 -45 3 -52 6 -48 21 2
9 0 17 -5 17 -5 0 -9 -4 -9 -10 0 -5 -16 -27 -35 -49 -19 -21 -35 -45 -35 -53
0 -22 -37 -51 -56 -44 -24 9 -13 53 43 166 26 52 49 98 51 103 7 15 -26 6 -74
-19 -27 -14 -73 -49 -101 -77 -29 -28 -53 -48 -53 -45 0 10 59 110 76 129 13
15 13 17 -2 23 -30 11 -58 -19 -112 -122 -74 -142 -122 -188 -160 -150 -9 9
-6 19 12 42 68 90 89 199 44 230 -32 23 -60 20 -104 -10 -50 -33 -67 -55 -109
-136 -42 -82 -90 -138 -117 -138 -18 0 -20 5 -15 42 3 22 28 85 55 140 38 73
46 98 35 98 -28 0 -123 -61 -174 -112 l-50 -50 34 69 c61 121 12 126 -108 11
-41 -39 -75 -68 -75 -65 0 9 60 110 76 128 13 15 13 17 -2 23 -30 11 -58 -19
-112 -122 -75 -143 -131 -191 -182 -155 -14 10 -20 25 -20 51 0 49 7 57 59 73
81 24 153 116 121 154 -16 19 -63 19 -99 0 -60 -30 -118 -125 -128 -205 -5
-43 -3 -51 20 -74 30 -30 81 -35 127 -11 26 14 29 14 24 0 -5 -11 1 -15 19
-15 20 0 32 13 63 67 38 65 134 173 154 173 16 0 12 -17 -19 -88 -39 -90 -46
-119 -31 -137 11 -13 18 -6 49 46 48 82 130 169 159 169 22 0 22 -1 -13 -67
-53 -101 -46 -163 19 -163 22 0 40 11 73 45 41 43 43 44 43 20 0 -30 32 -65
60 -65 12 0 34 7 49 15 23 11 35 12 60 2 23 -8 39 -9 60 0 24 9 29 8 24 -3 -3
-10 3 -14 20 -14 20 0 31 11 55 53 59 104 159 206 176 178 3 -5 -10 -39 -29
-76 -19 -36 -35 -79 -35 -94 0 -53 63 -80 103 -44 18 17 19 17 28 0 18 -31 68
-49 140 -49 117 0 206 55 320 199 50 62 52 63 99 63 130 0 271 55 354 137 58
58 80 104 73 154 -8 59 -40 94 -122 135 l-73 36 26 24 c31 27 20 31 -23 8z
m100 -119 c31 -28 35 -38 35 -82 0 -107 -106 -208 -269 -257 -68 -20 -148 -22
-133 -3 5 6 44 73 87 147 42 74 95 163 117 197 l39 61 45 -15 c25 -8 60 -30
79 -48z m-1940 -332 c-3 -14 -13 -36 -22 -50 -17 -25 -81 -63 -108 -63 -14 0
-13 3 2 28 65 103 146 157 128 85z m703 -30 c3 -38 -31 -143 -46 -143 -2 0
-10 8 -17 17 -11 15 -15 15 -30 3 -12 -10 -15 -23 -12 -48 5 -28 2 -35 -18
-44 -37 -17 -55 -4 -55 39 0 84 100 229 153 221 18 -2 23 -11 25 -45z"/>
<path d="M3504 644 c-49 -33 -69 -57 -100 -119 -57 -118 -8 -209 87 -160 21
12 34 13 48 5 50 -26 106 2 142 72 11 22 23 37 26 34 4 -4 -34 -87 -83 -186
-78 -156 -88 -181 -72 -186 9 -3 26 0 37 5 17 9 63 105 102 214 l13 37 47 -6
c57 -8 105 13 150 64 70 79 101 199 61 235 -38 35 -90 8 -148 -76 -26 -37 -34
-45 -31 -27 4 14 9 44 13 68 l7 42 -37 0 -36 0 0 -45 c0 -81 -99 -245 -147
-245 -37 0 -45 21 -19 54 68 90 89 199 44 230 -32 23 -60 20 -104 -10z m426
-9 c19 -23 4 -77 -41 -144 -47 -71 -106 -121 -143 -121 -14 0 -26 4 -26 9 0
20 107 197 141 233 39 42 50 45 69 23z m-322 -39 c3 -36 -18 -107 -40 -134 -8
-10 -13 -9 -23 5 -11 15 -15 15 -30 3 -12 -10 -15 -23 -12 -48 5 -28 2 -35
-18 -44 -37 -17 -55 -4 -55 39 0 84 100 229 153 221 18 -2 23 -11 25 -42z"/>
</g>
</svg>
